<svg width="24" height="24" viewBox="0 0 24 24" fill="none" xmlns="http://www.w3.org/2000/svg">
  <path d="M21.25 17.92V20.92C21.25 21.35 21.08 21.77 20.77 22.08C20.46 22.39 20.04 22.56 19.61 22.56C15.95 22.34 12.44 20.79 9.7 18.15C6.96 15.5 5.28 12.05 4.95 8.42C4.93 8.2 4.96 7.98 5.04 7.78C5.12 7.58 5.24 7.4 5.4 7.25C5.56 7.1 5.75 6.99 5.96 6.92C6.17 6.86 6.39 6.84 6.61 6.87H9.61C9.99 6.87 10.36 7 10.66 7.24C10.96 7.48 11.16 7.82 11.23 8.19C11.36 9.15 11.63 10.09 12.03 10.98C12.16 11.28 12.2 11.62 12.13 11.94C12.07 12.25 11.91 12.54 11.67 12.76L10.4 14.03C11.8 16.42 13.86 18.4 16.3 19.71L17.57 18.44C17.79 18.2 18.08 18.04 18.39 17.98C18.71 17.91 19.05 17.95 19.35 18.08C20.24 18.48 21.18 18.75 22.14 18.88C22.5 18.95 22.84 19.15 23.08 19.45C23.32 19.75 23.45 20.12 23.45 20.5" stroke="currentColor" stroke-width="1.8" stroke-linecap="round" stroke-linejoin="round"/>
</svg>
